<?xml version="1.0" standalone="no"?>
<!DOCTYPE svg PUBLIC "-//W3C//DTD SVG 20010904//EN"
 "http://www.w3.org/TR/2001/REC-SVG-20010904/DTD/svg10.dtd">
<svg version="1.0" xmlns="http://www.w3.org/2000/svg"
 width="512.000000pt" height="512.000000pt" viewBox="0 0 512.000000 512.000000"
 preserveAspectRatio="xMidYMid meet">

<g transform="translate(0.000000,512.000000) scale(0.100000,-0.100000)"
fill="#e1e9ee" stroke="none">
<path d="M2625 5113 c-480 -16 -946 -126 -1300 -305 -562 -284 -914 -802
-1040 -1529 -40 -232 -47 -310 -52 -646 -16 -984 139 -1780 429 -2214 156
-234 353 -373 581 -409 115 -19 282 -8 382 24 282 91 496 353 734 899 84 194
196 416 251 502 143 218 295 352 522 459 141 67 241 101 486 166 283 74 451
145 622 260 372 252 594 618 651 1074 14 119 7 330 -16 436 -92 419 -375 775
-806 1013 -320 176 -917 288 -1444 270z"/>
</g>
</svg>
